# xmcd
#
# Track frame offsets: 
#        150
#        21185
#        41438
#
# Disc length: 832 seconds
#
# Revision: 4
# Processed by: cddbd v1.5.2PL0 Copyright (c) Steve Scherf et al.
# Submitted via: ExactAudioCopy v0.99pb4
#
DISCID=1a033e03
DTITLE=NORTHERN BRIGHT - STRAIGHT FROM MY HEART
DYEAR=2004
DGENRE=Anime
TTITLE0=Straight From My Heart
TTITLE1=Straight From My Heart (acoustic version)
TTITLE2=Straight From My Heart (instrumental)
EXTD=YEAR: 2004
EXTT0=
EXTT1=
EXTT2=
PLAYORDER=
